<svg width="129" height="63" viewBox="0 0 129 63" fill="none" xmlns="http://www.w3.org/2000/svg">
<path d="M30.7031 36.4355H36.3281C36.0352 39.1309 35.2637 41.543 34.0137 43.6719C32.7637 45.8008 30.9961 47.4902 28.7109 48.7402C26.4258 49.9707 23.5742 50.5859 20.1562 50.5859C17.6562 50.5859 15.3809 50.1172 13.3301 49.1797C11.2988 48.2422 9.55078 46.9141 8.08594 45.1953C6.62109 43.457 5.48828 41.377 4.6875 38.9551C3.90625 36.5137 3.51562 33.7988 3.51562 30.8105V26.5625C3.51562 23.5742 3.90625 20.8691 4.6875 18.4473C5.48828 16.0059 6.63086 13.916 8.11523 12.1777C9.61914 10.4395 11.4258 9.10156 13.5352 8.16406C15.6445 7.22656 18.0176 6.75781 20.6543 6.75781C23.877 6.75781 26.6016 7.36328 28.8281 8.57422C31.0547 9.78516 32.7832 11.4648 34.0137 13.6133C35.2637 15.7422 36.0352 18.2129 36.3281 21.0254H30.7031C30.4297 19.0332 29.9219 17.3242 29.1797 15.8984C28.4375 14.4531 27.3828 13.3398 26.0156 12.5586C24.6484 11.7773 22.8613 11.3867 20.6543 11.3867C18.7598 11.3867 17.0898 11.748 15.6445 12.4707C14.2188 13.1934 13.0176 14.2188 12.041 15.5469C11.084 16.875 10.3613 18.4668 9.87305 20.3223C9.38477 22.1777 9.14062 24.2383 9.14062 26.5039V30.8105C9.14062 32.9004 9.35547 34.8633 9.78516 36.6992C10.2344 38.5352 10.9082 40.1465 11.8066 41.5332C12.7051 42.9199 13.8477 44.0137 15.2344 44.8145C16.6211 45.5957 18.2617 45.9863 20.1562 45.9863C22.5586 45.9863 24.4727 45.6055 25.8984 44.8438C27.3242 44.082 28.3984 42.9883 29.1211 41.5625C29.8633 40.1367 30.3906 38.4277 30.7031 36.4355ZM48.6328 5V50H43.2129V5H48.6328ZM47.3438 32.9492L45.0879 32.8613C45.1074 30.6934 45.4297 28.6914 46.0547 26.8555C46.6797 25 47.5586 23.3887 48.6914 22.0215C49.8242 20.6543 51.1719 19.5996 52.7344 18.8574C54.3164 18.0957 56.0645 17.7148 57.9785 17.7148C59.541 17.7148 60.9473 17.9297 62.1973 18.3594C63.4473 18.7695 64.5117 19.4336 65.3906 20.3516C66.2891 21.2695 66.9727 22.4609 67.4414 23.9258C67.9102 25.3711 68.1445 27.1387 68.1445 29.2285V50H62.6953V29.1699C62.6953 27.5098 62.4512 26.1816 61.9629 25.1855C61.4746 24.1699 60.7617 23.4375 59.8242 22.9883C58.8867 22.5195 57.7344 22.2852 56.3672 22.2852C55.0195 22.2852 53.7891 22.5684 52.6758 23.1348C51.582 23.7012 50.6348 24.4824 49.834 25.4785C49.0527 26.4746 48.4375 27.6172 47.9883 28.9062C47.5586 30.1758 47.3438 31.5234 47.3438 32.9492Z" fill="white"/>
<path d="M94.9512 44.5801V28.2617C94.9512 27.0117 94.6973 25.9277 94.1895 25.0098C93.7012 24.0723 92.959 23.3496 91.9629 22.8418C90.9668 22.334 89.7363 22.0801 88.2715 22.0801C86.9043 22.0801 85.7031 22.3145 84.668 22.7832C83.6523 23.252 82.8516 23.8672 82.2656 24.6289C81.6992 25.3906 81.416 26.2109 81.416 27.0898H75.9961C75.9961 25.957 76.2891 24.834 76.875 23.7207C77.4609 22.6074 78.3008 21.6016 79.3945 20.7031C80.5078 19.7852 81.8359 19.0625 83.3789 18.5352C84.9414 17.9883 86.6797 17.7148 88.5938 17.7148C90.8984 17.7148 92.9297 18.1055 94.6875 18.8867C96.4648 19.668 97.8516 20.8496 98.8477 22.4316C99.8633 23.9941 100.371 25.957 100.371 28.3203V43.0859C100.371 44.1406 100.459 45.2637 100.635 46.4551C100.83 47.6465 101.113 48.6719 101.484 49.5312V50H95.8301C95.5566 49.375 95.3418 48.5449 95.1855 47.5098C95.0293 46.4551 94.9512 45.4785 94.9512 44.5801ZM95.8887 30.7812L95.9473 34.5898H90.4688C88.9258 34.5898 87.5488 34.7168 86.3379 34.9707C85.127 35.2051 84.1113 35.5664 83.291 36.0547C82.4707 36.543 81.8457 37.1582 81.416 37.9004C80.9863 38.623 80.7715 39.4727 80.7715 40.4492C80.7715 41.4453 80.9961 42.3535 81.4453 43.1738C81.8945 43.9941 82.5684 44.6484 83.4668 45.1367C84.3848 45.6055 85.5078 45.8398 86.8359 45.8398C88.4961 45.8398 89.9609 45.4883 91.2305 44.7852C92.5 44.082 93.5059 43.2227 94.248 42.207C95.0098 41.1914 95.4199 40.2051 95.4785 39.248L97.793 41.8555C97.6562 42.6758 97.2852 43.584 96.6797 44.5801C96.0742 45.5762 95.2637 46.5332 94.248 47.4512C93.252 48.3496 92.0605 49.1016 90.6738 49.707C89.3066 50.293 87.7637 50.5859 86.0449 50.5859C83.8965 50.5859 82.0117 50.166 80.3906 49.3262C78.7891 48.4863 77.5391 47.3633 76.6406 45.957C75.7617 44.5312 75.3223 42.9395 75.3223 41.1816C75.3223 39.4824 75.6543 37.9883 76.3184 36.6992C76.9824 35.3906 77.9395 34.3066 79.1895 33.4473C80.4395 32.5684 81.9434 31.9043 83.7012 31.4551C85.459 31.0059 87.4219 30.7812 89.5898 30.7812H95.8887ZM122.168 18.3008V22.4609H105.029V18.3008H122.168ZM110.83 10.5957H116.25V42.1484C116.25 43.2227 116.416 44.0332 116.748 44.5801C117.08 45.127 117.51 45.4883 118.037 45.6641C118.564 45.8398 119.131 45.9277 119.736 45.9277C120.186 45.9277 120.654 45.8887 121.143 45.8105C121.65 45.7129 122.031 45.6348 122.285 45.5762L122.314 50C121.885 50.1367 121.318 50.2637 120.615 50.3809C119.932 50.5176 119.102 50.5859 118.125 50.5859C116.797 50.5859 115.576 50.3223 114.463 49.7949C113.35 49.2676 112.461 48.3887 111.797 47.1582C111.152 45.9082 110.83 44.2285 110.83 42.1191V10.5957Z" fill="#E56B6F"/>
<rect x="80" y="59" width="44" height="4" rx="2" fill="#D9D9D9"/>
</svg>
